<?xml version="1.0" encoding="UTF-8" standalone="no"?>
<!DOCTYPE svg PUBLIC "-//W3C//DTD SVG 1.1//EN"
 "http://www.w3.org/Graphics/SVG/1.1/DTD/svg11.dtd">
<!-- Generated by graphviz version 10.0.1 (20240210.2158)
 -->
<!-- Pages: 1 -->
<svg width="616pt" height="282pt"
 viewBox="0.00 0.00 615.75 282.25" xmlns="http://www.w3.org/2000/svg" xmlns:xlink="http://www.w3.org/1999/xlink">
<g id="graph0" class="graph" transform="scale(1 1) rotate(0) translate(4 278.25)">
<polygon fill="white" stroke="none" points="-4,4 -4,-278.25 611.75,-278.25 611.75,4 -4,4"/>
<!-- RFP -->
<g id="node1" class="node">
<title>RFP</title>
<text text-anchor="middle" x="545.75" y="-110.95" font-family="Times New Roman,serif" font-size="14.00">RFP</text>
<text text-anchor="middle" x="545.75" y="-95.2" font-family="Times New Roman,serif" font-size="14.00"> &#160;&#160;51.00</text>
<text text-anchor="middle" x="545.75" y="-79.45" font-family="Times New Roman,serif" font-size="14.00">1010101010101010</text>
</g>
<!-- GFP -->
<g id="node2" class="node">
<title>GFP</title>
<text text-anchor="middle" x="545.75" y="-37.95" font-family="Times New Roman,serif" font-size="14.00">GFP</text>
<text text-anchor="middle" x="545.75" y="-22.2" font-family="Times New Roman,serif" font-size="14.00"> &#160;287.02</text>
<text text-anchor="middle" x="545.75" y="-6.45" font-family="Times New Roman,serif" font-size="14.00">0010001000100010</text>
</g>
<!-- BFP -->
<g id="node3" class="node">
<title>BFP</title>
<text text-anchor="middle" x="545.75" y="-183.95" font-family="Times New Roman,serif" font-size="14.00">BFP</text>
<text text-anchor="middle" x="545.75" y="-168.2" font-family="Times New Roman,serif" font-size="14.00"> &#160;&#160;83.38</text>
<text text-anchor="middle" x="545.75" y="-152.45" font-family="Times New Roman,serif" font-size="14.00">0000000010101010</text>
</g>
<!-- YFP -->
<g id="node4" class="node">
<title>YFP</title>
<text text-anchor="middle" x="222" y="-256.95" font-family="Times New Roman,serif" font-size="14.00">YFP</text>
<text text-anchor="middle" x="222" y="-241.2" font-family="Times New Roman,serif" font-size="14.00"> &#160;304.88</text>
<text text-anchor="middle" x="222" y="-225.45" font-family="Times New Roman,serif" font-size="14.00">0000111100001111</text>
</g>
<!-- fadD -->
<g id="node5" class="node">
<title>fadD</title>
<text text-anchor="middle" x="222" y="-110.95" font-family="Times New Roman,serif" font-size="14.00">INPUT fadD 0</text>
<text text-anchor="middle" x="222" y="-95.2" font-family="Times New Roman,serif" font-size="14.00"> &#160;304.88</text>
<text text-anchor="middle" x="222" y="-79.45" font-family="Times New Roman,serif" font-size="14.00">0101010101010101</text>
</g>
<!-- B2_BM3R1 -->
<g id="node9" class="node">
<title>B2_BM3R1</title>
<polygon fill="#ffffff" stroke="black" points="447.75,-201.25 320,-201.25 320,-146 447.75,-146 447.75,-201.25"/>
<text text-anchor="middle" x="383.88" y="-183.95" font-family="Times New Roman,serif" font-size="14.00">NOR B2_BM3R1 2</text>
<text text-anchor="middle" x="383.88" y="-168.2" font-family="Times New Roman,serif" font-size="14.00"> &#160;&#160;83.38</text>
<text text-anchor="middle" x="383.88" y="-152.45" font-family="Times New Roman,serif" font-size="14.00">0000000010101010</text>
</g>
<!-- fadD&#45;&gt;B2_BM3R1 -->
<g id="edge3" class="edge">
<title>fadD&#45;&gt;B2_BM3R1</title>
<path fill="none" stroke="black" d="M283.66,-100.62C297.79,-100.62 308.75,-100.62 308.75,-100.62 308.75,-100.62 308.75,-164.42 308.75,-164.42 308.75,-164.42 309.83,-164.42 309.83,-164.42"/>
<polygon fill="black" stroke="black" points="308,-167.92 318,-164.42 308,-160.92 308,-167.92"/>
</g>
<!-- S4_SrpR -->
<g id="node10" class="node">
<title>S4_SrpR</title>
<polygon fill="#ffffff" stroke="black" points="445.88,-55.25 321.88,-55.25 321.88,0 445.88,0 445.88,-55.25"/>
<text text-anchor="middle" x="383.88" y="-37.95" font-family="Times New Roman,serif" font-size="14.00">NOR S4_SrpR 2</text>
<text text-anchor="middle" x="383.88" y="-22.2" font-family="Times New Roman,serif" font-size="14.00"> &#160;287.02</text>
<text text-anchor="middle" x="383.88" y="-6.45" font-family="Times New Roman,serif" font-size="14.00">0010001000100010</text>
</g>
<!-- fadD&#45;&gt;S4_SrpR -->
<g id="edge7" class="edge">
<title>fadD&#45;&gt;S4_SrpR</title>
<path fill="none" stroke="black" d="M283.73,-86.81C291.48,-86.81 296.75,-86.81 296.75,-86.81 296.75,-86.81 296.75,-36.83 296.75,-36.83 296.75,-36.83 309.97,-36.83 309.97,-36.83"/>
<polygon fill="black" stroke="black" points="309.97,-40.33 319.97,-36.83 309.97,-33.33 309.97,-40.33"/>
</g>
<!-- A1_AmtR -->
<g id="node13" class="node">
<title>A1_AmtR</title>
<polygon fill="#ffffff" stroke="black" points="445.88,-128.25 321.88,-128.25 321.88,-73 445.88,-73 445.88,-128.25"/>
<text text-anchor="middle" x="383.88" y="-110.95" font-family="Times New Roman,serif" font-size="14.00">NOT A1_AmtR 1</text>
<text text-anchor="middle" x="383.88" y="-95.2" font-family="Times New Roman,serif" font-size="14.00"> &#160;&#160;51.00</text>
<text text-anchor="middle" x="383.88" y="-79.45" font-family="Times New Roman,serif" font-size="14.00">1010101010101010</text>
</g>
<!-- fadD&#45;&gt;A1_AmtR -->
<g id="edge11" class="edge">
<title>fadD&#45;&gt;A1_AmtR</title>
<path fill="none" stroke="black" d="M283.66,-114.44C283.66,-114.44 310.07,-114.44 310.07,-114.44"/>
<polygon fill="black" stroke="black" points="310.07,-117.94 320.07,-114.44 310.07,-110.94 310.07,-117.94"/>
</g>
<!-- pLuxStar -->
<g id="node6" class="node">
<title>pLuxStar</title>
<text text-anchor="middle" x="62" y="-37.95" font-family="Times New Roman,serif" font-size="14.00">INPUT pLuxStar 0</text>
<text text-anchor="middle" x="62" y="-22.2" font-family="Times New Roman,serif" font-size="14.00"> &#160;&#160;12.40</text>
<text text-anchor="middle" x="62" y="-6.45" font-family="Times New Roman,serif" font-size="14.00">0011001100110011</text>
</g>
<!-- P1_PhlF -->
<g id="node12" class="node">
<title>P1_PhlF</title>
<polygon fill="#ffffff" stroke="black" points="284,-55.25 160,-55.25 160,0 284,0 284,-55.25"/>
<text text-anchor="middle" x="222" y="-37.95" font-family="Times New Roman,serif" font-size="14.00">NOT P1_PhlF 1</text>
<text text-anchor="middle" x="222" y="-22.2" font-family="Times New Roman,serif" font-size="14.00"> &#160;254.75</text>
<text text-anchor="middle" x="222" y="-6.45" font-family="Times New Roman,serif" font-size="14.00">1100110011001100</text>
</g>
<!-- pLuxStar&#45;&gt;P1_PhlF -->
<g id="edge9" class="edge">
<title>pLuxStar&#45;&gt;P1_PhlF</title>
<path fill="none" stroke="black" d="M123.86,-27.62C123.86,-27.62 148,-27.62 148,-27.62"/>
<polygon fill="black" stroke="black" points="148,-31.13 158,-27.63 148,-24.13 148,-31.13"/>
</g>
<!-- pBAD -->
<g id="node7" class="node">
<title>pBAD</title>
<text text-anchor="middle" x="62" y="-256.95" font-family="Times New Roman,serif" font-size="14.00">INPUT pBAD &#45;1</text>
<text text-anchor="middle" x="62" y="-241.2" font-family="Times New Roman,serif" font-size="14.00"> &#160;304.88</text>
<text text-anchor="middle" x="62" y="-225.45" font-family="Times New Roman,serif" font-size="14.00">0000111100001111</text>
</g>
<!-- pBAD&#45;&gt;YFP -->
<g id="edge1" class="edge">
<title>pBAD&#45;&gt;YFP</title>
<path fill="none" stroke="black" d="M123.86,-246.62C123.86,-246.62 148.53,-246.62 148.53,-246.62"/>
<polygon fill="black" stroke="black" points="148.53,-250.13 158.53,-246.63 148.53,-243.13 148.53,-250.13"/>
</g>
<!-- galEP2 -->
<g id="node8" class="node">
<title>galEP2</title>
<text text-anchor="middle" x="62" y="-183.95" font-family="Times New Roman,serif" font-size="14.00">INPUT galEP2 0</text>
<text text-anchor="middle" x="62" y="-168.2" font-family="Times New Roman,serif" font-size="14.00"> &#160;304.88</text>
<text text-anchor="middle" x="62" y="-152.45" font-family="Times New Roman,serif" font-size="14.00">0000000011111111</text>
</g>
<!-- H1_HlyIIR -->
<g id="node11" class="node">
<title>H1_HlyIIR</title>
<polygon fill="#ffffff" stroke="black" points="284,-201.25 160,-201.25 160,-146 284,-146 284,-201.25"/>
<text text-anchor="middle" x="222" y="-183.95" font-family="Times New Roman,serif" font-size="14.00">NOT H1_HlyIIR 1</text>
<text text-anchor="middle" x="222" y="-168.2" font-family="Times New Roman,serif" font-size="14.00"> &#160;&#160;34.24</text>
<text text-anchor="middle" x="222" y="-152.45" font-family="Times New Roman,serif" font-size="14.00">1111111100000000</text>
</g>
<!-- galEP2&#45;&gt;H1_HlyIIR -->
<g id="edge5" class="edge">
<title>galEP2&#45;&gt;H1_HlyIIR</title>
<path fill="none" stroke="black" d="M123.86,-173.62C123.86,-173.62 148,-173.62 148,-173.62"/>
<polygon fill="black" stroke="black" points="148,-177.13 158,-173.63 148,-170.13 148,-177.13"/>
</g>
<!-- B2_BM3R1&#45;&gt;BFP -->
<g id="edge2" class="edge">
<title>B2_BM3R1&#45;&gt;BFP</title>
<path fill="none" stroke="black" d="M447.85,-173.62C447.85,-173.62 472.31,-173.62 472.31,-173.62"/>
<polygon fill="black" stroke="black" points="472.31,-177.13 482.31,-173.63 472.31,-170.13 472.31,-177.13"/>
</g>
<!-- S4_SrpR&#45;&gt;GFP -->
<g id="edge6" class="edge">
<title>S4_SrpR&#45;&gt;GFP</title>
<path fill="none" stroke="black" d="M446,-27.62C446,-27.62 472.28,-27.62 472.28,-27.62"/>
<polygon fill="black" stroke="black" points="472.28,-31.13 482.28,-27.63 472.28,-24.13 472.28,-31.13"/>
</g>
<!-- H1_HlyIIR&#45;&gt;B2_BM3R1 -->
<g id="edge4" class="edge">
<title>H1_HlyIIR&#45;&gt;B2_BM3R1</title>
<path fill="none" stroke="black" d="M284.12,-182.83C284.12,-182.83 307.99,-182.83 307.99,-182.83"/>
<polygon fill="black" stroke="black" points="307.99,-186.33 317.99,-182.83 307.99,-179.33 307.99,-186.33"/>
</g>
<!-- P1_PhlF&#45;&gt;S4_SrpR -->
<g id="edge8" class="edge">
<title>P1_PhlF&#45;&gt;S4_SrpR</title>
<path fill="none" stroke="black" d="M284.12,-18.42C284.12,-18.42 309.87,-18.42 309.87,-18.42"/>
<polygon fill="black" stroke="black" points="309.87,-21.92 319.87,-18.42 309.87,-14.92 309.87,-21.92"/>
</g>
<!-- A1_AmtR&#45;&gt;RFP -->
<g id="edge10" class="edge">
<title>A1_AmtR&#45;&gt;RFP</title>
<path fill="none" stroke="black" d="M446,-100.62C446,-100.62 472.28,-100.62 472.28,-100.62"/>
<polygon fill="black" stroke="black" points="472.28,-104.13 482.28,-100.63 472.28,-97.13 472.28,-104.13"/>
</g>
</g>
</svg>
