<?xml version="1.0" encoding="UTF-8" standalone="no"?>
<!DOCTYPE svg PUBLIC "-//W3C//DTD SVG 1.1//EN"
 "http://www.w3.org/Graphics/SVG/1.1/DTD/svg11.dtd">
<!-- Generated by graphviz version 10.0.1 (20240210.2158)
 -->
<!-- Pages: 1 -->
<svg width="612pt" height="222pt"
 viewBox="0.00 0.00 612.00 221.50" xmlns="http://www.w3.org/2000/svg" xmlns:xlink="http://www.w3.org/1999/xlink">
<g id="graph0" class="graph" transform="scale(1 1) rotate(0) translate(4 217.5)">
<polygon fill="white" stroke="none" points="-4,4 -4,-217.5 608,-217.5 608,4 -4,4"/>
<!-- out1 -->
<g id="node1" class="node">
<title>out1</title>
<text text-anchor="middle" x="542" y="-80.2" font-family="Times New Roman,serif" font-size="14.00">out1</text>
<text text-anchor="middle" x="542" y="-64.45" font-family="Times New Roman,serif" font-size="14.00">1010101010101010</text>
</g>
<!-- out2 -->
<g id="node2" class="node">
<title>out2</title>
<text text-anchor="middle" x="542" y="-138.2" font-family="Times New Roman,serif" font-size="14.00">out2</text>
<text text-anchor="middle" x="542" y="-122.45" font-family="Times New Roman,serif" font-size="14.00">0010001000100010</text>
</g>
<!-- out3 -->
<g id="node3" class="node">
<title>out3</title>
<text text-anchor="middle" x="542" y="-22.2" font-family="Times New Roman,serif" font-size="14.00">out3</text>
<text text-anchor="middle" x="542" y="-6.45" font-family="Times New Roman,serif" font-size="14.00">0000000010101010</text>
</g>
<!-- out4 -->
<g id="node4" class="node">
<title>out4</title>
<text text-anchor="middle" x="222" y="-196.2" font-family="Times New Roman,serif" font-size="14.00">out4</text>
<text text-anchor="middle" x="222" y="-180.45" font-family="Times New Roman,serif" font-size="14.00">0000111100001111</text>
</g>
<!-- in4 -->
<g id="node5" class="node">
<title>in4</title>
<text text-anchor="middle" x="222" y="-80.2" font-family="Times New Roman,serif" font-size="14.00">INPUT in4 0</text>
<text text-anchor="middle" x="222" y="-64.45" font-family="Times New Roman,serif" font-size="14.00">0101010101010101</text>
</g>
<!-- g5 -->
<g id="node9" class="node">
<title>g5</title>
<polygon fill="#ffffff" stroke="black" points="444,-97.5 320,-97.5 320,-58 444,-58 444,-97.5"/>
<text text-anchor="middle" x="382" y="-80.2" font-family="Times New Roman,serif" font-size="14.00">NOT g5 1</text>
<text text-anchor="middle" x="382" y="-64.45" font-family="Times New Roman,serif" font-size="14.00">1010101010101010</text>
</g>
<!-- in4&#45;&gt;g5 -->
<g id="edge11" class="edge">
<title>in4&#45;&gt;g5</title>
<path fill="none" stroke="black" d="M283.86,-77.75C283.86,-77.75 308,-77.75 308,-77.75"/>
<polygon fill="black" stroke="black" points="308,-81.25 318,-77.75 308,-74.25 308,-81.25"/>
</g>
<!-- g3 -->
<g id="node11" class="node">
<title>g3</title>
<polygon fill="#ffffff" stroke="black" points="444,-155.5 320,-155.5 320,-116 444,-116 444,-155.5"/>
<text text-anchor="middle" x="382" y="-138.2" font-family="Times New Roman,serif" font-size="14.00">NOR g3 2</text>
<text text-anchor="middle" x="382" y="-122.45" font-family="Times New Roman,serif" font-size="14.00">0010001000100010</text>
</g>
<!-- in4&#45;&gt;g3 -->
<g id="edge7" class="edge">
<title>in4&#45;&gt;g3</title>
<path fill="none" stroke="black" d="M283.59,-87.62C297.37,-87.62 308,-87.62 308,-87.62 308,-87.62 308,-129.17 308,-129.17 308,-129.17 309.16,-129.17 309.16,-129.17"/>
<polygon fill="black" stroke="black" points="308.05,-132.67 318.05,-129.17 308.05,-125.67 308.05,-132.67"/>
</g>
<!-- g1 -->
<g id="node13" class="node">
<title>g1</title>
<polygon fill="#ffffff" stroke="black" points="444,-39.5 320,-39.5 320,0 444,0 444,-39.5"/>
<text text-anchor="middle" x="382" y="-22.2" font-family="Times New Roman,serif" font-size="14.00">NOR g1 2</text>
<text text-anchor="middle" x="382" y="-6.45" font-family="Times New Roman,serif" font-size="14.00">0000000010101010</text>
</g>
<!-- in4&#45;&gt;g1 -->
<g id="edge3" class="edge">
<title>in4&#45;&gt;g1</title>
<path fill="none" stroke="black" d="M283.78,-67.88C291.08,-67.88 296,-67.88 296,-67.88 296,-67.88 296,-26.33 296,-26.33 296,-26.33 308.44,-26.33 308.44,-26.33"/>
<polygon fill="black" stroke="black" points="308.44,-29.83 318.44,-26.33 308.44,-22.83 308.44,-29.83"/>
</g>
<!-- in3 -->
<g id="node6" class="node">
<title>in3</title>
<text text-anchor="middle" x="62" y="-138.2" font-family="Times New Roman,serif" font-size="14.00">INPUT in3 0</text>
<text text-anchor="middle" x="62" y="-122.45" font-family="Times New Roman,serif" font-size="14.00">0011001100110011</text>
</g>
<!-- g4 -->
<g id="node10" class="node">
<title>g4</title>
<polygon fill="#ffffff" stroke="black" points="284,-155.5 160,-155.5 160,-116 284,-116 284,-155.5"/>
<text text-anchor="middle" x="222" y="-138.2" font-family="Times New Roman,serif" font-size="14.00">NOT g4 1</text>
<text text-anchor="middle" x="222" y="-122.45" font-family="Times New Roman,serif" font-size="14.00">1100110011001100</text>
</g>
<!-- in3&#45;&gt;g4 -->
<g id="edge9" class="edge">
<title>in3&#45;&gt;g4</title>
<path fill="none" stroke="black" d="M123.86,-135.75C123.86,-135.75 148,-135.75 148,-135.75"/>
<polygon fill="black" stroke="black" points="148,-139.25 158,-135.75 148,-132.25 148,-139.25"/>
</g>
<!-- in2 -->
<g id="node7" class="node">
<title>in2</title>
<text text-anchor="middle" x="62" y="-196.2" font-family="Times New Roman,serif" font-size="14.00">INPUT in2 &#45;1</text>
<text text-anchor="middle" x="62" y="-180.45" font-family="Times New Roman,serif" font-size="14.00">0000111100001111</text>
</g>
<!-- in2&#45;&gt;out4 -->
<g id="edge1" class="edge">
<title>in2&#45;&gt;out4</title>
<path fill="none" stroke="black" d="M123.86,-193.75C123.86,-193.75 148.53,-193.75 148.53,-193.75"/>
<polygon fill="black" stroke="black" points="148.53,-197.25 158.53,-193.75 148.53,-190.25 148.53,-197.25"/>
</g>
<!-- in1 -->
<g id="node8" class="node">
<title>in1</title>
<text text-anchor="middle" x="62" y="-22.2" font-family="Times New Roman,serif" font-size="14.00">INPUT in1 0</text>
<text text-anchor="middle" x="62" y="-6.45" font-family="Times New Roman,serif" font-size="14.00">0000000011111111</text>
</g>
<!-- g2 -->
<g id="node12" class="node">
<title>g2</title>
<polygon fill="#ffffff" stroke="black" points="284,-39.5 160,-39.5 160,0 284,0 284,-39.5"/>
<text text-anchor="middle" x="222" y="-22.2" font-family="Times New Roman,serif" font-size="14.00">NOT g2 1</text>
<text text-anchor="middle" x="222" y="-6.45" font-family="Times New Roman,serif" font-size="14.00">1111111100000000</text>
</g>
<!-- in1&#45;&gt;g2 -->
<g id="edge5" class="edge">
<title>in1&#45;&gt;g2</title>
<path fill="none" stroke="black" d="M123.86,-19.75C123.86,-19.75 148,-19.75 148,-19.75"/>
<polygon fill="black" stroke="black" points="148,-23.25 158,-19.75 148,-16.25 148,-23.25"/>
</g>
<!-- g5&#45;&gt;out1 -->
<g id="edge10" class="edge">
<title>g5&#45;&gt;out1</title>
<path fill="none" stroke="black" d="M444.32,-77.75C444.32,-77.75 468.6,-77.75 468.6,-77.75"/>
<polygon fill="black" stroke="black" points="468.6,-81.25 478.6,-77.75 468.6,-74.25 468.6,-81.25"/>
</g>
<!-- g4&#45;&gt;g3 -->
<g id="edge8" class="edge">
<title>g4&#45;&gt;g3</title>
<path fill="none" stroke="black" d="M284.32,-142.33C284.32,-142.33 308.08,-142.33 308.08,-142.33"/>
<polygon fill="black" stroke="black" points="308.08,-145.83 318.08,-142.33 308.07,-138.83 308.08,-145.83"/>
</g>
<!-- g3&#45;&gt;out2 -->
<g id="edge6" class="edge">
<title>g3&#45;&gt;out2</title>
<path fill="none" stroke="black" d="M444.32,-135.75C444.32,-135.75 468.6,-135.75 468.6,-135.75"/>
<polygon fill="black" stroke="black" points="468.6,-139.25 478.6,-135.75 468.6,-132.25 468.6,-139.25"/>
</g>
<!-- g2&#45;&gt;g1 -->
<g id="edge4" class="edge">
<title>g2&#45;&gt;g1</title>
<path fill="none" stroke="black" d="M284.32,-13.17C284.32,-13.17 308.08,-13.17 308.08,-13.17"/>
<polygon fill="black" stroke="black" points="308.08,-16.67 318.08,-13.17 308.07,-9.67 308.08,-16.67"/>
</g>
<!-- g1&#45;&gt;out3 -->
<g id="edge2" class="edge">
<title>g1&#45;&gt;out3</title>
<path fill="none" stroke="black" d="M444.32,-19.75C444.32,-19.75 468.6,-19.75 468.6,-19.75"/>
<polygon fill="black" stroke="black" points="468.6,-23.25 478.6,-19.75 468.6,-16.25 468.6,-23.25"/>
</g>
</g>
</svg>
