<?xml version="1.0" encoding="UTF-8" standalone="no"?>
<!DOCTYPE svg PUBLIC "-//W3C//DTD SVG 1.1//EN"
 "http://www.w3.org/Graphics/SVG/1.1/DTD/svg11.dtd">
<!-- Generated by graphviz version 10.0.1 (20240210.2158)
 -->
<!-- Pages: 1 -->
<svg width="382pt" height="314pt"
 viewBox="0.00 0.00 381.75 314.00" xmlns="http://www.w3.org/2000/svg" xmlns:xlink="http://www.w3.org/1999/xlink">
<g id="graph0" class="graph" transform="scale(1 1) rotate(0) translate(4 310)">
<polygon fill="white" stroke="none" points="-4,4 -4,-310 377.75,-310 377.75,4 -4,4"/>
<!-- RFP -->
<g id="node1" class="node">
<title>RFP</title>
<text text-anchor="middle" x="346.75" y="-120.58" font-family="Times New Roman,serif" font-size="14.00">RFP</text>
</g>
<!-- GFP -->
<g id="node2" class="node">
<title>GFP</title>
<text text-anchor="middle" x="346.75" y="-30.57" font-family="Times New Roman,serif" font-size="14.00">GFP</text>
</g>
<!-- BFP -->
<g id="node3" class="node">
<title>BFP</title>
<text text-anchor="middle" x="346.75" y="-210.57" font-family="Times New Roman,serif" font-size="14.00">BFP</text>
</g>
<!-- YFP -->
<g id="node4" class="node">
<title>YFP</title>
<text text-anchor="middle" x="139.75" y="-282.57" font-family="Times New Roman,serif" font-size="14.00">YFP</text>
</g>
<!-- fadD -->
<g id="node5" class="node">
<title>fadD</title>
<text text-anchor="middle" x="139.75" y="-120.58" font-family="Times New Roman,serif" font-size="14.00">fadD</text>
</g>
<!-- B2_BM3R1 -->
<g id="node9" class="node">
<title>B2_BM3R1</title>
<image xlink:href="ori_A000_B2_BM3R1_gate.png" width="72px" height="72px" preserveAspectRatio="xMinYMin meet" x="211.75" y="-252"/>
</g>
<!-- fadD&#45;&gt;B2_BM3R1 -->
<g id="edge3" class="edge">
<title>fadD&#45;&gt;B2_BM3R1</title>
<path fill="none" stroke="black" d="M166.59,-135C182.57,-135 199.75,-135 199.75,-135 199.75,-135 199.75,-204 199.75,-204 199.75,-204 200.96,-204 200.96,-204"/>
<polygon fill="black" stroke="black" points="200.35,-207.5 210.35,-204 200.35,-200.5 200.35,-207.5"/>
</g>
<!-- S4_SrpR -->
<g id="node10" class="node">
<title>S4_SrpR</title>
<image xlink:href="ori_A000_S4_SrpR_gate.png" width="72px" height="72px" preserveAspectRatio="xMinYMin meet" x="211.75" y="-72"/>
</g>
<!-- fadD&#45;&gt;S4_SrpR -->
<g id="edge7" class="edge">
<title>fadD&#45;&gt;S4_SrpR</title>
<path fill="none" stroke="black" d="M166.56,-117C177.55,-117 187.75,-117 187.75,-117 187.75,-117 187.75,-48 187.75,-48 187.75,-48 200.3,-48 200.3,-48"/>
<polygon fill="black" stroke="black" points="200.3,-51.5 210.3,-48 200.3,-44.5 200.3,-51.5"/>
</g>
<!-- A1_AmtR -->
<g id="node13" class="node">
<title>A1_AmtR</title>
<image xlink:href="ori_A000_A1_AmtR_gate.png" width="72px" height="72px" preserveAspectRatio="xMinYMin meet" x="211.75" y="-162"/>
</g>
<!-- fadD&#45;&gt;A1_AmtR -->
<g id="edge11" class="edge">
<title>fadD&#45;&gt;A1_AmtR</title>
<path fill="none" stroke="black" d="M166.72,-126C166.72,-126 200.24,-126 200.24,-126"/>
<polygon fill="black" stroke="black" points="200.24,-129.5 210.24,-126 200.24,-122.5 200.24,-129.5"/>
</g>
<!-- pLuxStar -->
<g id="node6" class="node">
<title>pLuxStar</title>
<text text-anchor="middle" x="33.88" y="-30.57" font-family="Times New Roman,serif" font-size="14.00">pLuxStar</text>
</g>
<!-- P1_PhlF -->
<g id="node12" class="node">
<title>P1_PhlF</title>
<image xlink:href="ori_A000_P1_PhlF_gate.png" width="72px" height="72px" preserveAspectRatio="xMinYMin meet" x="103.75" y="-72"/>
</g>
<!-- pLuxStar&#45;&gt;P1_PhlF -->
<g id="edge9" class="edge">
<title>pLuxStar&#45;&gt;P1_PhlF</title>
<path fill="none" stroke="black" d="M67.67,-36C67.67,-36 92.58,-36 92.58,-36"/>
<polygon fill="black" stroke="black" points="92.58,-39.5 102.58,-36 92.58,-32.5 92.58,-39.5"/>
</g>
<!-- pBAD -->
<g id="node7" class="node">
<title>pBAD</title>
<text text-anchor="middle" x="33.88" y="-282.57" font-family="Times New Roman,serif" font-size="14.00">pBAD</text>
</g>
<!-- pBAD&#45;&gt;YFP -->
<g id="edge1" class="edge">
<title>pBAD&#45;&gt;YFP</title>
<path fill="none" stroke="black" d="M60.87,-288C60.87,-288 101.3,-288 101.3,-288"/>
<polygon fill="black" stroke="black" points="101.3,-291.5 111.3,-288 101.3,-284.5 101.3,-291.5"/>
</g>
<!-- galEP2 -->
<g id="node8" class="node">
<title>galEP2</title>
<text text-anchor="middle" x="33.88" y="-210.57" font-family="Times New Roman,serif" font-size="14.00">galEP2</text>
</g>
<!-- H1_HlyIIR -->
<g id="node11" class="node">
<title>H1_HlyIIR</title>
<image xlink:href="ori_A000_H1_HlyIIR_gate.png" width="72px" height="72px" preserveAspectRatio="xMinYMin meet" x="103.75" y="-252"/>
</g>
<!-- galEP2&#45;&gt;H1_HlyIIR -->
<g id="edge5" class="edge">
<title>galEP2&#45;&gt;H1_HlyIIR</title>
<path fill="none" stroke="black" d="M61.14,-216C61.14,-216 92.28,-216 92.28,-216"/>
<polygon fill="black" stroke="black" points="92.28,-219.5 102.28,-216 92.28,-212.5 92.28,-219.5"/>
</g>
<!-- B2_BM3R1&#45;&gt;BFP -->
<g id="edge2" class="edge">
<title>B2_BM3R1&#45;&gt;BFP</title>
<path fill="none" stroke="black" d="M283.49,-216C283.49,-216 308.25,-216 308.25,-216"/>
<polygon fill="black" stroke="black" points="308.25,-219.5 318.25,-216 308.25,-212.5 308.25,-219.5"/>
</g>
<!-- S4_SrpR&#45;&gt;GFP -->
<g id="edge6" class="edge">
<title>S4_SrpR&#45;&gt;GFP</title>
<path fill="none" stroke="black" d="M283.49,-36C283.49,-36 308.25,-36 308.25,-36"/>
<polygon fill="black" stroke="black" points="308.25,-39.5 318.25,-36 308.25,-32.5 308.25,-39.5"/>
</g>
<!-- H1_HlyIIR&#45;&gt;B2_BM3R1 -->
<g id="edge4" class="edge">
<title>H1_HlyIIR&#45;&gt;B2_BM3R1</title>
<path fill="none" stroke="black" d="M175.71,-228C175.71,-228 200.43,-228 200.43,-228"/>
<polygon fill="black" stroke="black" points="200.43,-231.5 210.43,-228 200.43,-224.5 200.43,-231.5"/>
</g>
<!-- P1_PhlF&#45;&gt;S4_SrpR -->
<g id="edge8" class="edge">
<title>P1_PhlF&#45;&gt;S4_SrpR</title>
<path fill="none" stroke="black" d="M175.71,-24C175.71,-24 200.43,-24 200.43,-24"/>
<polygon fill="black" stroke="black" points="200.43,-27.5 210.43,-24 200.43,-20.5 200.43,-27.5"/>
</g>
<!-- A1_AmtR&#45;&gt;RFP -->
<g id="edge10" class="edge">
<title>A1_AmtR&#45;&gt;RFP</title>
<path fill="none" stroke="black" d="M283.49,-126C283.49,-126 308.25,-126 308.25,-126"/>
<polygon fill="black" stroke="black" points="308.25,-129.5 318.25,-126 308.25,-122.5 308.25,-129.5"/>
</g>
</g>
</svg>
